<svg id="eM2s4tZ0R8Q1" xmlns="http://www.w3.org/2000/svg" xmlns:xlink="http://www.w3.org/1999/xlink" viewBox="0 0 1000 1000" shape-rendering="geometricPrecision" text-rendering="geometricPrecision"><style><![CDATA[#eM2s4tZ0R8Q5_to {animation: eM2s4tZ0R8Q5_to__to 3000ms linear infinite normal forwards}@keyframes eM2s4tZ0R8Q5_to__to { 0% {transform: translate(624.477px,640.184px)} 33.333333% {transform: translate(624.477px,-300px)} 100% {transform: translate(624.477px,640.18px)}} #eM2s4tZ0R8Q6_to {animation: eM2s4tZ0R8Q6_to__to 3000ms linear infinite normal forwards}@keyframes eM2s4tZ0R8Q6_to__to { 0% {transform: translate(297.969px,800px)} 66.666667% {transform: translate(297.969px,466.933501px)} 100% {transform: translate(297.969px,778.623501px)}} #eM2s4tZ0R8Q37_tr {animation: eM2s4tZ0R8Q37_tr__tr 3000ms linear infinite normal forwards}@keyframes eM2s4tZ0R8Q37_tr__tr { 0% {transform: translate(566px,-176px) rotate(0deg)} 100% {transform: translate(566px,-176px) rotate(360deg)}}]]></style><defs><linearGradient id="eM2s4tZ0R8Q4-fill" x1="0.5" y1="0" x2="0.5" y2="1" spreadMethod="pad" gradientUnits="objectBoundingBox" gradientTransform="translate(0 0)"><stop id="eM2s4tZ0R8Q4-fill-0" offset="0%" stop-color="#f0a202"/><stop id="eM2s4tZ0R8Q4-fill-1" offset="100%" stop-color="#00e0d7"/></linearGradient><linearGradient id="eM2s4tZ0R8Q5-fill" x1="0.546" y1="0.12" x2="0.744" y2="0.784" spreadMethod="pad" gradientUnits="objectBoundingBox" gradientTransform="translate(0 0)"><stop id="eM2s4tZ0R8Q5-fill-0" offset="0%" stop-color="#f0f002"/><stop id="eM2s4tZ0R8Q5-fill-1" offset="45.1%" stop-color="#c2f85b"/><stop id="eM2s4tZ0R8Q5-fill-2" offset="100%" stop-color="#000"/></linearGradient><linearGradient id="eM2s4tZ0R8Q8-fill" x1="0.5" y1="0" x2="0.5" y2="1" spreadMethod="pad" gradientUnits="objectBoundingBox" gradientTransform="translate(0 0)"><stop id="eM2s4tZ0R8Q8-fill-0" offset="0%" stop-color="#1577b4"/><stop id="eM2s4tZ0R8Q8-fill-1" offset="100%" stop-color="#6320ee"/></linearGradient><linearGradient id="eM2s4tZ0R8Q12-fill" x1="0.5" y1="0" x2="0.5" y2="1" spreadMethod="pad" gradientUnits="objectBoundingBox" gradientTransform="translate(0 0)"><stop id="eM2s4tZ0R8Q12-fill-0" offset="0%" stop-color="#6320ee"/><stop id="eM2s4tZ0R8Q12-fill-1" offset="100%" stop-color="#321077"/></linearGradient><linearGradient id="eM2s4tZ0R8Q13-fill" x1="0.5" y1="0" x2="0.5" y2="1" spreadMethod="pad" gradientUnits="objectBoundingBox" gradientTransform="translate(0 0)"><stop id="eM2s4tZ0R8Q13-fill-0" offset="0%" stop-color="#ffcdbc"/><stop id="eM2s4tZ0R8Q13-fill-1" offset="100%" stop-color="#f8a68b"/></linearGradient><linearGradient id="eM2s4tZ0R8Q14-fill" x1="0.5" y1="0" x2="0.663" y2="1.875" spreadMethod="pad" gradientUnits="objectBoundingBox" gradientTransform="translate(0 0)"><stop id="eM2s4tZ0R8Q14-fill-0" offset="0%" stop-color="#f0a202"/><stop id="eM2s4tZ0R8Q14-fill-1" offset="100%" stop-color="#00fc1d"/></linearGradient><linearGradient id="eM2s4tZ0R8Q35-fill" x1="0.5" y1="0" x2="0.868" y2="0.537" spreadMethod="pad" gradientUnits="objectBoundingBox" gradientTransform="translate(0 0)"><stop id="eM2s4tZ0R8Q35-fill-0" offset="0%" stop-color="#ffcdbc"/><stop id="eM2s4tZ0R8Q35-fill-1" offset="100%" stop-color="#80675e"/></linearGradient><linearGradient id="eM2s4tZ0R8Q36-fill" x1="0.214" y1="0.146" x2="0.744" y2="0.784" spreadMethod="pad" gradientUnits="objectBoundingBox" gradientTransform="translate(0 0)"><stop id="eM2s4tZ0R8Q36-fill-0" offset="0%" stop-color="#f0a202"/><stop id="eM2s4tZ0R8Q36-fill-1" offset="50%" stop-color="#6724e7"/><stop id="eM2s4tZ0R8Q36-fill-2" offset="100%" stop-color="#000"/></linearGradient><linearGradient id="eM2s4tZ0R8Q37-fill" x1="0.5" y1="0" x2="0.863" y2="0.618" spreadMethod="pad" gradientUnits="objectBoundingBox" gradientTransform="translate(0 0)"><stop id="eM2s4tZ0R8Q37-fill-0" offset="0%" stop-color="#20ee48"/><stop id="eM2s4tZ0R8Q37-fill-1" offset="56.3%" stop-color="#6320ee"/><stop id="eM2s4tZ0R8Q37-fill-2" offset="100%" stop-color="#321077"/></linearGradient></defs><g clip-path="url(#eM2s4tZ0R8Q38)"><g><path d="M666.585,-124.614c373.916,0,687.484,311.851,687.484,542.819v721.705L0,1139.91L0,418.2c0-230.963,292.671-542.814,666.585-542.814Z" transform="translate(-180.752-98.43)" fill="url(#eM2s4tZ0R8Q4-fill)"/><g id="eM2s4tZ0R8Q5_to" transform="translate(624.477,640.184)"><ellipse rx="115.5" ry="113" transform="rotate(-6.999982) translate(115.5,113)" fill="url(#eM2s4tZ0R8Q5-fill)"/></g><g id="eM2s4tZ0R8Q6_to" transform="translate(297.969,800)"><g transform="translate(0,0)"><path d="M380.7,372.59h-359.373c-3.530113.000265-6.915717-1.401949-9.411884-3.898116s-3.898381-5.881771-3.898116-9.411884v-299.473c.001104-7.349967,5.960033-13.307552,13.31-13.307h359.373c7.346062.004968,13.298898,5.960937,13.3,13.307v299.474c-.00055,7.346616-5.953386,13.30348-13.3,13.309Z" transform="translate(-1.778-5.57)" fill="#f5efed"/><path d="M138.217,149.111l-53.24,53.24l133.1,159.719v-212.959Z" transform="translate(-18.843-28.324)" fill="url(#eM2s4tZ0R8Q8-fill)"/><g transform="translate(66.134 120.787)"><path d="M138.217,149.111l-53.24,53.24h73.2Z" transform="translate(-84.977-149.111)" fill="#6320ee"/><path d="M179.04,217.52l59.895,159.719v-159.719Z" transform="translate(-105.835-164.28)" fill="#6320ee"/></g><path d="M179.04,202.351l59.895-53.24v53.24Z" transform="translate(-39.701-28.324)" fill="url(#eM2s4tZ0R8Q12-fill)"/><path d="M435.684,382.071h-179.684v-292.818h192.994v279.509c-.000552,7.350519-5.95948,13.309-13.31,13.309Z" transform="translate(-56.767-15.051)" fill="url(#eM2s4tZ0R8Q13-fill)"/><path d="M403.486,79.772h-352.714v-33.272h339.4c3.530113-.000265,6.915717,1.401949,9.411884,3.898116s3.898381,5.881771,3.898116,9.411884Z" transform="translate(-11.258-5.57)" fill="url(#eM2s4tZ0R8Q14-fill)"/><rect width="33.275" height="33.275" rx="0" ry="0" transform="translate(292.403 40.927)" fill="#ff5050"/><rect width="33.275" height="33.275" rx="0" ry="0" transform="translate(325.678 40.927)" fill="#fff082"/><path d="M494.5,79.772h-33.273v-33.272h19.965c3.530113-.000265,6.915717,1.401949,9.411884,3.898116s3.898381,5.881771,3.898116,9.411884v19.962Z" transform="translate(-102.275-5.57)" fill="#a0ffb4"/><path d="M378.918,34.687h-173.445v-7.071c0-3.445981-2.793519-6.2395-6.2395-6.2395s-6.2395,2.793519-6.2395,6.2395v7.071h-173.445C8.757411,34.699124,0.012124,43.444411,0,54.236v299.475c.012124,10.791589,8.757411,19.536876,19.549,19.549h173.445v7.071c0,3.445981,2.793519,6.2395,6.2395,6.2395s6.2395-2.793519,6.2395-6.2395v-7.071h173.445c10.791589-.012124,19.536876-8.757411,19.549-19.549v-299.475c-.012124-10.791589-8.757411-19.536876-19.549-19.549Zm7.071,19.549v13.727h-20.8v-20.8h13.726c3.905558.002206,7.071242,3.167443,7.074,7.073ZM331.917,67.963v-20.8h20.8v20.8Zm-33.275,0v-20.8h20.8v20.8Zm-12.479-20.8v20.8h-80.69v-20.8Zm-93.17,20.8h-147.24v-20.8h147.241ZM19.549,47.166h13.726v20.8h-20.8v-13.73c.004963-3.904157,3.169841-7.067246,7.074-7.07Zm0,313.615c-3.903378-.004409-7.066591-3.167622-7.071-7.071v-273.27h180.516v34.107h-73.621c-1.654478-.000256-3.241245.65697-4.411,1.827l-53.24,53.24c-2.281639,2.281489-2.446865,5.926438-.381,8.405L192.994,336v24.777ZM192.994,180.266v119.073L148.341,180.266h44.653Zm-37.245-12.479l37.246-33.108v33.108Zm-13.761-4.464l-13.612-36.3h54.447Zm-25.054-31.274l13.4,35.738h-49.134Zm18.081,48.217l45.459,121.223L79.454,180.266Zm243.9,180.515h-173.442v-280.341h180.516v273.27c-.004409,3.903378-3.167622,7.066591-7.071,7.071Z" fill="#000500"/><path d="M296.978,162.123h13.31c3.445981,0,6.2395-2.793519,6.2395-6.2395s-2.793519-6.2395-6.2395-6.2395h-13.31c-3.445981,0-6.2395,2.793519-6.2395,6.2395s2.793519,6.2395,6.2395,6.2395Z" transform="translate(-64.47-28.443)"/><path d="M296.978,230.533h13.31c3.445981,0,6.2395-2.793519,6.2395-6.2395s-2.793519-6.2395-6.2395-6.2395h-13.31c-3.445981,0-6.2395,2.793519-6.2395,6.2395s2.793519,6.2395,6.2395,6.2395Z" transform="translate(-64.47-43.612)"/><path d="M316.392,190.088c0,3.445705,2.793295,6.239,6.239,6.239h13.31c3.445981,0,6.2395-2.793519,6.2395-6.2395s-2.793519-6.2395-6.2395-6.2395h-13.31c-3.445866.000552-6.239,2.794134-6.239,6.24Z" transform="translate(-70.158-36.027)"/><path d="M434.8,149.645h-86.515c-3.445981,0-6.2395,2.793519-6.2395,6.2395s2.793519,6.2395,6.2395,6.2395h86.515c3.445981,0,6.2395-2.793519,6.2395-6.2395s-2.793519-6.2395-6.2395-6.2395Z" transform="translate(-75.847-28.443)"/><path d="M434.8,218.054h-86.515c-3.445981,0-6.2395,2.793519-6.2395,6.2395s2.793519,6.2395,6.2395,6.2395h86.515c3.445981,0,6.2395-2.793519,6.2395-6.2395s-2.793519-6.2395-6.2395-6.2395Z" transform="translate(-75.847-43.612)"/><path d="M440.489,183.85h-66.55c-3.445981,0-6.2395,2.793519-6.2395,6.2395s2.793519,6.2395,6.2395,6.2395h66.549c3.445981,0,6.2395-2.793519,6.2395-6.2395s-2.793519-6.2395-6.2395-6.2395Z" transform="translate(-81.536-36.028)"/><path d="M342.18,258.5c0-3.445705-2.793295-6.239-6.239-6.239h-13.31c-3.445981,0-6.2395,2.793519-6.2395,6.2395s2.793519,6.2395,6.2395,6.2395h13.31c3.445866-.000552,6.239-2.794134,6.239-6.24Z" transform="translate(-70.158-51.197)"/><path d="M440.489,252.259h-66.55c-3.445981,0-6.2395,2.793519-6.2395,6.2395s2.793519,6.2395,6.2395,6.2395h66.549c3.445981,0,6.2395-2.793519,6.2395-6.2395s-2.793519-6.2395-6.2395-6.2395Z" transform="translate(-81.536-51.197)"/><path d="M296.978,298.942h13.31c3.445981,0,6.2395-2.793519,6.2395-6.2395s-2.793519-6.2395-6.2395-6.2395h-13.31c-3.445981,0-6.2395,2.793519-6.2395,6.2395s2.793519,6.2395,6.2395,6.2395Z" transform="translate(-64.47-58.782)"/><path d="M316.527,361.111c0-3.445705-2.793296-6.239-6.239-6.239h-13.31c-3.445981,0-6.2395,2.793519-6.2395,6.2395s2.793519,6.2395,6.2395,6.2395h13.31c1.654859,0,3.241925-.657459,4.411993-1.827714s1.827272-2.757427,1.827007-4.412286Z" transform="translate(-64.47-73.951)"/><path d="M316.392,326.907c0,3.445705,2.793296,6.239,6.239,6.239h13.31c3.445981,0,6.2395-2.793519,6.2395-6.2395s-2.793519-6.2395-6.2395-6.2395h-13.31c-1.654859,0-3.241925.657459-4.411993,1.827714s-1.827272,2.757427-1.827007,4.412286Z" transform="translate(-70.158-66.366)"/><path d="M434.8,286.463h-86.515c-3.445981,0-6.2395,2.793519-6.2395,6.2395s2.793519,6.2395,6.2395,6.2395h86.515c3.445981,0,6.2395-2.793519,6.2395-6.2395s-2.793519-6.2395-6.2395-6.2395Z" transform="translate(-75.847-58.782)"/><path d="M434.8,354.873h-86.515c-3.445981,0-6.2395,2.793519-6.2395,6.2395s2.793519,6.2395,6.2395,6.2395h86.515c3.445981,0,6.2395-2.793519,6.2395-6.2395s-2.793519-6.2395-6.2395-6.2395Z" transform="translate(-75.847-73.951)"/><path d="M440.489,320.668h-66.55c-3.445981,0-6.2395,2.793519-6.2395,6.2395s2.793519,6.2395,6.2395,6.2395h66.549c3.445981,0,6.2395-2.793519,6.2395-6.2395s-2.793519-6.2395-6.2395-6.2395Z" transform="translate(-81.536-66.366)"/><path d="M335.941,389.077h-13.31c-3.445981,0-6.2395,2.793519-6.2395,6.2395s2.793519,6.2395,6.2395,6.2395h13.31c3.445981,0,6.2395-2.793519,6.2395-6.2395s-2.793519-6.2395-6.2395-6.2395Z" transform="translate(-70.158-81.536)"/><path d="M440.489,389.077h-66.55c-3.445981,0-6.2395,2.793519-6.2395,6.2395s2.793519,6.2395,6.2395,6.2395h66.549c3.445981,0,6.2395-2.793519,6.2395-6.2395s-2.793519-6.2395-6.2395-6.2395Z" transform="translate(-81.536-81.536)"/></g></g><circle r="40" transform="translate(314.702 347.5)" fill="url(#eM2s4tZ0R8Q35-fill)"/><path d="M1044.2,271v0h-950.614c2.025978-18.989538,6.931177-37.559965,14.547-55.073c8.005622-18.286021,18.347425-35.457373,30.767-51.085c13.437235-16.900872,28.616945-32.339678,45.288-46.061c18.182175-14.980177,37.623314-28.36317,58.107-40c22.238411-12.650672,45.3756-23.651574,69.225-32.914c25.645226-9.969807,51.915347-18.250831,78.642-24.79C418.602973,14.112178,447.442615,8.890132,476.52,5.44c61.368393-7.253779,123.377607-7.253779,184.746,0c29.077277,3.448509,57.916916,8.668885,86.358,15.632c26.72665,6.539177,52.996771,14.820201,78.642,24.79c23.849432,9.26235,46.986628,20.263255,69.225,32.914c20.483702,11.636805,39.924842,25.019799,58.107,40c16.67102,13.72136,31.850726,29.160162,45.288,46.061c12.419879,15.627241,22.762019,32.798259,30.768,51.084c7.615874,17.515046,12.520739,36.087509,14.546,55.079Z" transform="translate(-68.894 728.999)" fill="url(#eM2s4tZ0R8Q36-fill)"/><g id="eM2s4tZ0R8Q37_tr" transform="translate(566,-176) rotate(0)"><circle r="350" transform="translate(350,350)" fill="url(#eM2s4tZ0R8Q37-fill)"/></g></g><clipPath id="eM2s4tZ0R8Q38"><rect width="1000" height="1000" rx="0" ry="0"/></clipPath></g></svg>